<?xml version="1.0" encoding="UTF-8" standalone="no"?>
<!DOCTYPE svg PUBLIC "-//W3C//DTD SVG 1.1//EN"
 "http://www.w3.org/Graphics/SVG/1.1/DTD/svg11.dtd">
<!-- Generated by graphviz version 13.1.0 (20250701.0955)
 -->
<!-- Title: G Pages: 1 -->
<svg width="1121pt" height="499pt"
 viewBox="0.00 0.00 1121.00 499.00" xmlns="http://www.w3.org/2000/svg" xmlns:xlink="http://www.w3.org/1999/xlink">
<g id="graph0" class="graph" transform="scale(1 1) rotate(0) translate(4 495.25)">
<title>G</title>
<polygon fill="white" stroke="none" points="-4,4 -4,-495.25 1117,-495.25 1117,4 -4,4"/>
<g id="clust1" class="cluster">
<title>cluster_sources</title>
<polygon fill="none" stroke="black" points="8,-392 8,-483.25 184,-483.25 184,-392 8,-392"/>
<text xml:space="preserve" text-anchor="middle" x="96" y="-467.85" font-family="Times,serif" font-size="12.00">Data sources</text>
</g>
<g id="clust2" class="cluster">
<title>cluster_download</title>
<polygon fill="none" stroke="black" points="131,-139.75 131,-362.75 335,-362.75 335,-139.75 131,-139.75"/>
<text xml:space="preserve" text-anchor="middle" x="233" y="-347.35" font-family="Times,serif" font-size="12.00">Download &amp; corpus</text>
</g>
<g id="clust3" class="cluster">
<title>cluster_libs</title>
<polygon fill="none" stroke="black" points="401,-15.5 401,-231 755,-231 755,-15.5 401,-15.5"/>
<text xml:space="preserve" text-anchor="middle" x="578" y="-215.6" font-family="Times,serif" font-size="12.00">Libraries &amp; transformation</text>
</g>
<g id="clust4" class="cluster">
<title>cluster_apps</title>
<polygon fill="none" stroke="black" points="763,-8 763,-99.25 1105,-99.25 1105,-8 763,-8"/>
<text xml:space="preserve" text-anchor="middle" x="934" y="-83.85" font-family="Times,serif" font-size="12.00">Applications &amp; storage</text>
</g>
<!-- EUPMC -->
<g id="node1" class="node">
<title>EUPMC</title>
<path fill="none" stroke="black" d="M164.38,-453C164.38,-453 27.62,-453 27.62,-453 21.62,-453 15.62,-447 15.62,-441 15.62,-441 15.62,-412 15.62,-412 15.62,-406 21.62,-400 27.62,-400 27.62,-400 164.38,-400 164.38,-400 170.38,-400 176.38,-406 176.38,-412 176.38,-412 176.38,-441 176.38,-441 176.38,-447 170.38,-453 164.38,-453"/>
<text xml:space="preserve" text-anchor="middle" x="96" y="-435.7" font-family="Helvetica,sans-Serif" font-size="14.00">Europe PMC</text>
<text xml:space="preserve" text-anchor="middle" x="96" y="-420.7" font-family="Helvetica,sans-Serif" font-size="14.00">(biorxiv, medrxiv,</text>
<text xml:space="preserve" text-anchor="middle" x="96" y="-405.7" font-family="Helvetica,sans-Serif" font-size="14.00">Crossref, OpenAlex, …)</text>
</g>
<!-- pygetpapers -->
<g id="node2" class="node">
<title>pygetpapers</title>
<path fill="none" stroke="black" d="M315.25,-332.5C315.25,-332.5 150.75,-332.5 150.75,-332.5 144.75,-332.5 138.75,-326.5 138.75,-320.5 138.75,-320.5 138.75,-291.5 138.75,-291.5 138.75,-285.5 144.75,-279.5 150.75,-279.5 150.75,-279.5 315.25,-279.5 315.25,-279.5 321.25,-279.5 327.25,-285.5 327.25,-291.5 327.25,-291.5 327.25,-320.5 327.25,-320.5 327.25,-326.5 321.25,-332.5 315.25,-332.5"/>
<text xml:space="preserve" text-anchor="middle" x="233" y="-315.2" font-family="Helvetica,sans-Serif" font-size="14.00">pygetpapers</text>
<text xml:space="preserve" text-anchor="middle" x="233" y="-300.2" font-family="Helvetica,sans-Serif" font-size="14.00">(CProject&#45;like output:</text>
<text xml:space="preserve" text-anchor="middle" x="233" y="-285.2" font-family="Helvetica,sans-Serif" font-size="14.00">fulltext.xml, .json, .pdf, .html)</text>
</g>
<!-- EUPMC&#45;&gt;pygetpapers -->
<g id="edge1" class="edge">
<title>EUPMC&#45;&gt;pygetpapers</title>
<path fill="none" stroke="black" d="M125.73,-399.79C145.92,-382.32 172.83,-359.05 194.64,-340.18"/>
<polygon fill="black" stroke="black" points="196.91,-342.84 202.19,-333.65 192.33,-337.55 196.91,-342.84"/>
<text xml:space="preserve" text-anchor="middle" x="178.42" y="-372.5" font-family="Helvetica,sans-Serif" font-size="10.00">query, API</text>
</g>
<!-- semantic_corpus -->
<g id="node3" class="node">
<title>semantic_corpus</title>
<path fill="none" stroke="black" d="M302.5,-200.75C302.5,-200.75 151.5,-200.75 151.5,-200.75 145.5,-200.75 139.5,-194.75 139.5,-188.75 139.5,-188.75 139.5,-159.75 139.5,-159.75 139.5,-153.75 145.5,-147.75 151.5,-147.75 151.5,-147.75 302.5,-147.75 302.5,-147.75 308.5,-147.75 314.5,-153.75 314.5,-159.75 314.5,-159.75 314.5,-188.75 314.5,-188.75 314.5,-194.75 308.5,-200.75 302.5,-200.75"/>
<text xml:space="preserve" text-anchor="middle" x="227" y="-183.45" font-family="Helvetica,sans-Serif" font-size="14.00">semantic_corpus</text>
<text xml:space="preserve" text-anchor="middle" x="227" y="-168.45" font-family="Helvetica,sans-Serif" font-size="14.00">(create, search, download,</text>
<text xml:space="preserve" text-anchor="middle" x="227" y="-153.45" font-family="Helvetica,sans-Serif" font-size="14.00">BAGIT ingest)</text>
</g>
<!-- EUPMC&#45;&gt;semantic_corpus -->
<g id="edge2" class="edge">
<title>EUPMC&#45;&gt;semantic_corpus</title>
<path fill="none" stroke="black" d="M73.31,-399.55C65.43,-388.89 57.55,-375.96 53.5,-362.75 42.65,-327.38 35.28,-311.7 53.5,-279.5 72.32,-246.24 106.46,-222.42 139.51,-206.03"/>
<polygon fill="black" stroke="black" points="140.81,-209.29 148.34,-201.83 137.81,-202.96 140.81,-209.29"/>
<text xml:space="preserve" text-anchor="middle" x="91.75" y="-302.12" font-family="Helvetica,sans-Serif" font-size="10.00">search, download</text>
</g>
<!-- pygetpapers&#45;&gt;semantic_corpus -->
<g id="edge4" class="edge">
<title>pygetpapers&#45;&gt;semantic_corpus</title>
<path fill="none" stroke="black" d="M231.8,-279.05C230.92,-259.96 229.7,-233.73 228.72,-212.41"/>
<polygon fill="black" stroke="black" points="232.23,-212.49 228.27,-202.66 225.23,-212.81 232.23,-212.49"/>
<text xml:space="preserve" text-anchor="middle" x="260.51" y="-252" font-family="Helvetica,sans-Serif" font-size="10.00">ingest</text>
<text xml:space="preserve" text-anchor="middle" x="260.51" y="-240.75" font-family="Helvetica,sans-Serif" font-size="10.00">xml, pdf, json</text>
</g>
<!-- docanalysis -->
<g id="node5" class="node">
<title>docanalysis</title>
<path fill="none" stroke="black" d="M605,-61.5C605,-61.5 421,-61.5 421,-61.5 415,-61.5 409,-55.5 409,-49.5 409,-49.5 409,-35.5 409,-35.5 409,-29.5 415,-23.5 421,-23.5 421,-23.5 605,-23.5 605,-23.5 611,-23.5 617,-29.5 617,-35.5 617,-35.5 617,-49.5 617,-49.5 617,-55.5 611,-61.5 605,-61.5"/>
<text xml:space="preserve" text-anchor="middle" x="513" y="-44.2" font-family="Helvetica,sans-Serif" font-size="14.00">docanalysis</text>
<text xml:space="preserve" text-anchor="middle" x="513" y="-29.2" font-family="Helvetica,sans-Serif" font-size="14.00">(section, NER, ami&#45;dict, abbrev)</text>
</g>
<!-- pygetpapers&#45;&gt;docanalysis -->
<g id="edge3" class="edge">
<title>pygetpapers&#45;&gt;docanalysis</title>
<path fill="none" stroke="black" d="M271.52,-279.08C279.16,-273.51 286.98,-267.5 294,-261.5 308.46,-249.16 313.62,-246.93 324,-231 347.83,-194.44 332.36,-173.31 360.25,-139.75 386.73,-107.88 426.59,-83.26 458.96,-66.9"/>
<polygon fill="black" stroke="black" points="460.39,-70.1 467.82,-62.55 457.3,-63.82 460.39,-70.1"/>
<text xml:space="preserve" text-anchor="middle" x="380.12" y="-176" font-family="Helvetica,sans-Serif" font-size="10.00">CProject</text>
<text xml:space="preserve" text-anchor="middle" x="380.12" y="-164.75" font-family="Helvetica,sans-Serif" font-size="10.00">xml, json</text>
</g>
<!-- txt2phrases -->
<g id="node6" class="node">
<title>txt2phrases</title>
<path fill="none" stroke="black" d="M734.62,-200.75C734.62,-200.75 635.38,-200.75 635.38,-200.75 629.38,-200.75 623.38,-194.75 623.38,-188.75 623.38,-188.75 623.38,-159.75 623.38,-159.75 623.38,-153.75 629.38,-147.75 635.38,-147.75 635.38,-147.75 734.62,-147.75 734.62,-147.75 740.62,-147.75 746.62,-153.75 746.62,-159.75 746.62,-159.75 746.62,-188.75 746.62,-188.75 746.62,-194.75 740.62,-200.75 734.62,-200.75"/>
<text xml:space="preserve" text-anchor="middle" x="685" y="-183.45" font-family="Helvetica,sans-Serif" font-size="14.00">txt2phrases</text>
<text xml:space="preserve" text-anchor="middle" x="685" y="-168.45" font-family="Helvetica,sans-Serif" font-size="14.00">(pdf2txt, html2txt,</text>
<text xml:space="preserve" text-anchor="middle" x="685" y="-153.45" font-family="Helvetica,sans-Serif" font-size="14.00">keyphrases, auto)</text>
</g>
<!-- pygetpapers&#45;&gt;txt2phrases -->
<g id="edge5" class="edge">
<title>pygetpapers&#45;&gt;txt2phrases</title>
<path fill="none" stroke="black" d="M327.59,-299.06C407.07,-291.2 522.08,-273.02 614,-231 626.58,-225.25 638.93,-216.83 649.71,-208.28"/>
<polygon fill="black" stroke="black" points="651.73,-211.15 657.2,-202.08 647.26,-205.76 651.73,-211.15"/>
<text xml:space="preserve" text-anchor="middle" x="622.24" y="-252" font-family="Helvetica,sans-Serif" font-size="10.00">auto pipeline</text>
<text xml:space="preserve" text-anchor="middle" x="622.24" y="-240.75" font-family="Helvetica,sans-Serif" font-size="10.00">pdf, html</text>
</g>
<!-- encyclopedia -->
<g id="node7" class="node">
<title>encyclopedia</title>
<path fill="none" stroke="black" d="M895.38,-69C895.38,-69 782.62,-69 782.62,-69 776.62,-69 770.62,-63 770.62,-57 770.62,-57 770.62,-28 770.62,-28 770.62,-22 776.62,-16 782.62,-16 782.62,-16 895.38,-16 895.38,-16 901.38,-16 907.38,-22 907.38,-28 907.38,-28 907.38,-57 907.38,-57 907.38,-63 901.38,-69 895.38,-69"/>
<text xml:space="preserve" text-anchor="middle" x="839" y="-51.7" font-family="Helvetica,sans-Serif" font-size="14.00">encyclopedia</text>
<text xml:space="preserve" text-anchor="middle" x="839" y="-36.7" font-family="Helvetica,sans-Serif" font-size="14.00">(keyword extraction,</text>
<text xml:space="preserve" text-anchor="middle" x="839" y="-21.7" font-family="Helvetica,sans-Serif" font-size="14.00">dictionary, browser)</text>
</g>
<!-- pygetpapers&#45;&gt;encyclopedia -->
<g id="edge9" class="edge">
<title>pygetpapers&#45;&gt;encyclopedia</title>
<path fill="none" stroke="black" d="M327.61,-302.54C460.32,-297.3 692.94,-281.06 759,-231 806.93,-194.68 826.48,-123.97 834.21,-80.52"/>
<polygon fill="black" stroke="black" points="837.63,-81.24 835.8,-70.8 830.73,-80.1 837.63,-81.24"/>
<text xml:space="preserve" text-anchor="middle" x="854.73" y="-176" font-family="Helvetica,sans-Serif" font-size="10.00">corpus creation</text>
<text xml:space="preserve" text-anchor="middle" x="854.73" y="-164.75" font-family="Helvetica,sans-Serif" font-size="10.00">(demo/notebook)</text>
</g>
<!-- amilib -->
<g id="node4" class="node">
<title>amilib</title>
<path fill="none" stroke="black" d="M593.38,-193.25C593.38,-193.25 420.62,-193.25 420.62,-193.25 414.62,-193.25 408.62,-187.25 408.62,-181.25 408.62,-181.25 408.62,-167.25 408.62,-167.25 408.62,-161.25 414.62,-155.25 420.62,-155.25 420.62,-155.25 593.38,-155.25 593.38,-155.25 599.38,-155.25 605.38,-161.25 605.38,-167.25 605.38,-167.25 605.38,-181.25 605.38,-181.25 605.38,-187.25 599.38,-193.25 593.38,-193.25"/>
<text xml:space="preserve" text-anchor="middle" x="507" y="-175.95" font-family="Helvetica,sans-Serif" font-size="14.00">amilib</text>
<text xml:space="preserve" text-anchor="middle" x="507" y="-160.95" font-family="Helvetica,sans-Serif" font-size="14.00">(DICT, HTML, PDF, SEARCH)</text>
</g>
<!-- amilib&#45;&gt;docanalysis -->
<g id="edge8" class="edge">
<title>amilib&#45;&gt;docanalysis</title>
<path fill="none" stroke="black" d="M468.99,-154.87C459.52,-148.33 450.56,-139.99 445.25,-129.75 440.65,-120.87 441.28,-116.43 445.25,-107.25 451.69,-92.34 463.53,-79.3 475.53,-68.97"/>
<polygon fill="black" stroke="black" points="477.48,-71.9 483.05,-62.89 473.07,-66.46 477.48,-71.9"/>
<text xml:space="preserve" text-anchor="middle" x="484.62" y="-114.62" font-family="Helvetica,sans-Serif" font-size="10.00">(future integration)</text>
</g>
<!-- amilib&#45;&gt;encyclopedia -->
<g id="edge7" class="edge">
<title>amilib&#45;&gt;encyclopedia</title>
<path fill="none" stroke="black" d="M547.9,-154.78C590.64,-135.5 651.92,-107.97 654.75,-107.25 699.79,-95.83 715.23,-114.86 759,-99.25 773.74,-93.99 788.26,-85.26 800.81,-76.26"/>
<polygon fill="black" stroke="black" points="802.88,-79.08 808.78,-70.27 798.68,-73.48 802.88,-79.08"/>
<text xml:space="preserve" text-anchor="middle" x="693.38" y="-120.25" font-family="Helvetica,sans-Serif" font-size="10.00">HtmlLib, AmiDict,</text>
<text xml:space="preserve" text-anchor="middle" x="693.38" y="-109" font-family="Helvetica,sans-Serif" font-size="10.00">Wikimedia</text>
</g>
<!-- docanalysis&#45;&gt;amilib -->
<g id="edge6" class="edge">
<title>docanalysis&#45;&gt;amilib</title>
<path fill="none" stroke="black" d="M520.38,-61.78C526.47,-79.32 533.32,-106.49 528,-129.75 526.85,-134.76 525.05,-139.86 522.98,-144.73"/>
<polygon fill="black" stroke="black" points="519.94,-142.97 518.79,-153.51 526.25,-145.99 519.94,-142.97"/>
<text xml:space="preserve" text-anchor="middle" x="564.41" y="-120.25" font-family="Helvetica,sans-Serif" font-size="10.00">AMI dict xml</text>
<text xml:space="preserve" text-anchor="middle" x="564.41" y="-109" font-family="Helvetica,sans-Serif" font-size="10.00">annotation input</text>
</g>
<!-- txt2phrases&#45;&gt;encyclopedia -->
<g id="edge10" class="edge">
<title>txt2phrases&#45;&gt;encyclopedia</title>
<path fill="none" stroke="black" d="M714.54,-147.36C728.61,-135.11 745.72,-120.34 761.25,-107.25 773.16,-97.21 786.22,-86.42 798.18,-76.63"/>
<polygon fill="black" stroke="black" points="800.37,-79.36 805.89,-70.32 795.94,-73.94 800.37,-79.36"/>
<text xml:space="preserve" text-anchor="middle" x="791.62" y="-120.25" font-family="Helvetica,sans-Serif" font-size="10.00">keywords csv</text>
<text xml:space="preserve" text-anchor="middle" x="791.62" y="-109" font-family="Helvetica,sans-Serif" font-size="10.00">(optional)</text>
</g>
<!-- pyamiimage -->
<g id="node8" class="node">
<title>pyamiimage</title>
<path fill="none" stroke="black" d="M1084.62,-61.5C1084.62,-61.5 937.38,-61.5 937.38,-61.5 931.38,-61.5 925.38,-55.5 925.38,-49.5 925.38,-49.5 925.38,-35.5 925.38,-35.5 925.38,-29.5 931.38,-23.5 937.38,-23.5 937.38,-23.5 1084.62,-23.5 1084.62,-23.5 1090.62,-23.5 1096.62,-29.5 1096.62,-35.5 1096.62,-35.5 1096.62,-49.5 1096.62,-49.5 1096.62,-55.5 1090.62,-61.5 1084.62,-61.5"/>
<text xml:space="preserve" text-anchor="middle" x="1011" y="-44.2" font-family="Helvetica,sans-Serif" font-size="14.00">pyamiimage</text>
<text xml:space="preserve" text-anchor="middle" x="1011" y="-29.2" font-family="Helvetica,sans-Serif" font-size="14.00">(diagram/OCR extraction)</text>
</g>
</g>
</svg>
